<mxfile host="app.diagrams.net" modified="2024-05-18T01:05:27.481Z" agent="Mozilla/5.0 (Windows NT 10.0; Win64; x64; rv:125.0) Gecko/20100101 Firefox/125.0" etag="tSnd1eTlb7mGTQxbvCsA" version="24.4.3" type="github">
  <diagram name="Page-1" id="929967ad-93f9-6ef4-fab6-5d389245f69c">
    <mxGraphModel dx="1738" dy="1013" grid="1" gridSize="10" guides="1" tooltips="1" connect="1" arrows="1" fold="1" page="1" pageScale="1.5" pageWidth="1169" pageHeight="826" background="none" math="0" shadow="0">
      <root>
        <mxCell id="0" style=";html=1;" />
        <mxCell id="1" style=";html=1;" parent="0" />
        <mxCell id="uKUIGhbXq-7t1j8THEdL-55" style="edgeStyle=orthogonalEdgeStyle;rounded=0;orthogonalLoop=1;jettySize=auto;html=1;entryX=1;entryY=0.5;entryDx=0;entryDy=0;exitX=0.5;exitY=0;exitDx=0;exitDy=0;endArrow=none;endFill=0;" edge="1" parent="1" source="uKUIGhbXq-7t1j8THEdL-57" target="uKUIGhbXq-7t1j8THEdL-62">
          <mxGeometry relative="1" as="geometry" />
        </mxCell>
        <mxCell id="uKUIGhbXq-7t1j8THEdL-56" style="edgeStyle=orthogonalEdgeStyle;rounded=0;orthogonalLoop=1;jettySize=auto;html=1;entryX=0;entryY=0.5;entryDx=0;entryDy=0;endArrow=none;endFill=0;" edge="1" parent="1" source="uKUIGhbXq-7t1j8THEdL-57" target="uKUIGhbXq-7t1j8THEdL-70">
          <mxGeometry relative="1" as="geometry" />
        </mxCell>
        <mxCell id="uKUIGhbXq-7t1j8THEdL-57" value="warGame:WarGame" style="html=1;whiteSpace=wrap;" vertex="1" parent="1">
          <mxGeometry x="1000" y="1010" width="110" height="50" as="geometry" />
        </mxCell>
        <mxCell id="uKUIGhbXq-7t1j8THEdL-58" style="edgeStyle=orthogonalEdgeStyle;rounded=0;orthogonalLoop=1;jettySize=auto;html=1;endArrow=none;endFill=0;entryX=0.5;entryY=1;entryDx=0;entryDy=0;exitX=1;exitY=0.5;exitDx=0;exitDy=0;" edge="1" parent="1" source="uKUIGhbXq-7t1j8THEdL-60" target="uKUIGhbXq-7t1j8THEdL-57">
          <mxGeometry relative="1" as="geometry" />
        </mxCell>
        <mxCell id="uKUIGhbXq-7t1j8THEdL-59" style="edgeStyle=orthogonalEdgeStyle;rounded=0;orthogonalLoop=1;jettySize=auto;html=1;entryX=0.5;entryY=1;entryDx=0;entryDy=0;endArrow=none;endFill=0;exitX=0.5;exitY=1;exitDx=0;exitDy=0;" edge="1" parent="1" source="uKUIGhbXq-7t1j8THEdL-66" target="uKUIGhbXq-7t1j8THEdL-70">
          <mxGeometry relative="1" as="geometry">
            <Array as="points">
              <mxPoint x="697" y="1210" />
              <mxPoint x="1390" y="1210" />
            </Array>
          </mxGeometry>
        </mxCell>
        <mxCell id="uKUIGhbXq-7t1j8THEdL-60" value="player2: Player" style="html=1;whiteSpace=wrap;" vertex="1" parent="1">
          <mxGeometry x="860" y="1100" width="110" height="50" as="geometry" />
        </mxCell>
        <mxCell id="uKUIGhbXq-7t1j8THEdL-61" style="edgeStyle=orthogonalEdgeStyle;rounded=0;orthogonalLoop=1;jettySize=auto;html=1;entryX=1;entryY=0.5;entryDx=0;entryDy=0;endArrow=none;endFill=0;" edge="1" parent="1" source="uKUIGhbXq-7t1j8THEdL-62" target="uKUIGhbXq-7t1j8THEdL-63">
          <mxGeometry relative="1" as="geometry" />
        </mxCell>
        <mxCell id="uKUIGhbXq-7t1j8THEdL-62" value="player1: Player" style="html=1;whiteSpace=wrap;" vertex="1" parent="1">
          <mxGeometry x="860" y="910" width="110" height="50" as="geometry" />
        </mxCell>
        <mxCell id="uKUIGhbXq-7t1j8THEdL-133" style="edgeStyle=orthogonalEdgeStyle;rounded=0;orthogonalLoop=1;jettySize=auto;html=1;entryX=0.5;entryY=0;entryDx=0;entryDy=0;endArrow=none;endFill=0;" edge="1" parent="1" source="uKUIGhbXq-7t1j8THEdL-63" target="uKUIGhbXq-7t1j8THEdL-66">
          <mxGeometry relative="1" as="geometry" />
        </mxCell>
        <mxCell id="uKUIGhbXq-7t1j8THEdL-63" value="source: Territory" style="html=1;whiteSpace=wrap;" vertex="1" parent="1">
          <mxGeometry x="642" y="910" width="110" height="50" as="geometry" />
        </mxCell>
        <mxCell id="uKUIGhbXq-7t1j8THEdL-64" style="edgeStyle=orthogonalEdgeStyle;rounded=0;orthogonalLoop=1;jettySize=auto;html=1;entryX=0.5;entryY=1;entryDx=0;entryDy=0;endArrow=none;endFill=0;" edge="1" parent="1" source="uKUIGhbXq-7t1j8THEdL-66" target="uKUIGhbXq-7t1j8THEdL-68">
          <mxGeometry relative="1" as="geometry" />
        </mxCell>
        <mxCell id="uKUIGhbXq-7t1j8THEdL-65" style="edgeStyle=orthogonalEdgeStyle;rounded=0;orthogonalLoop=1;jettySize=auto;html=1;entryX=0;entryY=0.5;entryDx=0;entryDy=0;endArrow=none;endFill=0;exitX=1;exitY=0.5;exitDx=0;exitDy=0;" edge="1" parent="1" source="uKUIGhbXq-7t1j8THEdL-66" target="uKUIGhbXq-7t1j8THEdL-60">
          <mxGeometry relative="1" as="geometry" />
        </mxCell>
        <mxCell id="uKUIGhbXq-7t1j8THEdL-66" value="target: Territory" style="html=1;whiteSpace=wrap;" vertex="1" parent="1">
          <mxGeometry x="642" y="1100" width="110" height="50" as="geometry" />
        </mxCell>
        <mxCell id="uKUIGhbXq-7t1j8THEdL-67" style="edgeStyle=orthogonalEdgeStyle;rounded=0;orthogonalLoop=1;jettySize=auto;html=1;entryX=0;entryY=0.5;entryDx=0;entryDy=0;exitX=0.5;exitY=0;exitDx=0;exitDy=0;endArrow=none;endFill=0;" edge="1" parent="1" source="uKUIGhbXq-7t1j8THEdL-68" target="uKUIGhbXq-7t1j8THEdL-63">
          <mxGeometry relative="1" as="geometry" />
        </mxCell>
        <mxCell id="uKUIGhbXq-7t1j8THEdL-68" value="reg: Region" style="html=1;whiteSpace=wrap;" vertex="1" parent="1">
          <mxGeometry x="490" y="1010" width="110" height="50" as="geometry" />
        </mxCell>
        <mxCell id="uKUIGhbXq-7t1j8THEdL-69" style="edgeStyle=orthogonalEdgeStyle;rounded=0;orthogonalLoop=1;jettySize=auto;html=1;endArrow=none;endFill=0;" edge="1" parent="1" source="uKUIGhbXq-7t1j8THEdL-70" target="uKUIGhbXq-7t1j8THEdL-72">
          <mxGeometry relative="1" as="geometry" />
        </mxCell>
        <mxCell id="uKUIGhbXq-7t1j8THEdL-76" style="edgeStyle=orthogonalEdgeStyle;rounded=0;orthogonalLoop=1;jettySize=auto;html=1;entryX=0.5;entryY=0;entryDx=0;entryDy=0;endArrow=none;endFill=0;" edge="1" parent="1" source="uKUIGhbXq-7t1j8THEdL-70" target="uKUIGhbXq-7t1j8THEdL-63">
          <mxGeometry relative="1" as="geometry">
            <Array as="points">
              <mxPoint x="1390" y="860" />
              <mxPoint x="697" y="860" />
            </Array>
          </mxGeometry>
        </mxCell>
        <mxCell id="uKUIGhbXq-7t1j8THEdL-138" style="edgeStyle=orthogonalEdgeStyle;rounded=0;orthogonalLoop=1;jettySize=auto;html=1;entryX=0;entryY=0;entryDx=0;entryDy=0;exitX=0.75;exitY=1;exitDx=0;exitDy=0;" edge="1" parent="1" source="uKUIGhbXq-7t1j8THEdL-70" target="uKUIGhbXq-7t1j8THEdL-73">
          <mxGeometry relative="1" as="geometry">
            <Array as="points">
              <mxPoint x="1425" y="1140" />
              <mxPoint x="1670" y="1140" />
            </Array>
          </mxGeometry>
        </mxCell>
        <mxCell id="uKUIGhbXq-7t1j8THEdL-70" value="&lt;blockquote&gt;attackPhase: TerritoryConfrontPhase&lt;/blockquote&gt;" style="html=1;whiteSpace=wrap;" vertex="1" parent="1">
          <mxGeometry x="1320" y="1010" width="140" height="50" as="geometry" />
        </mxCell>
        <mxCell id="uKUIGhbXq-7t1j8THEdL-71" style="edgeStyle=orthogonalEdgeStyle;rounded=0;orthogonalLoop=1;jettySize=auto;html=1;endArrow=none;endFill=0;" edge="1" parent="1" source="uKUIGhbXq-7t1j8THEdL-72" target="uKUIGhbXq-7t1j8THEdL-73">
          <mxGeometry relative="1" as="geometry" />
        </mxCell>
        <mxCell id="uKUIGhbXq-7t1j8THEdL-72" value="diceCon: DiceConfront" style="html=1;whiteSpace=wrap;" vertex="1" parent="1">
          <mxGeometry x="1670" y="1010" width="110" height="50" as="geometry" />
        </mxCell>
        <mxCell id="uKUIGhbXq-7t1j8THEdL-94" style="edgeStyle=orthogonalEdgeStyle;rounded=0;orthogonalLoop=1;jettySize=auto;html=1;exitX=0;exitY=0.25;exitDx=0;exitDy=0;entryX=0;entryY=0.75;entryDx=0;entryDy=0;" edge="1" parent="1" source="uKUIGhbXq-7t1j8THEdL-73" target="uKUIGhbXq-7t1j8THEdL-73">
          <mxGeometry relative="1" as="geometry">
            <mxPoint x="1530" y="1172.5882352941178" as="targetPoint" />
            <Array as="points">
              <mxPoint x="1630" y="1173" />
              <mxPoint x="1630" y="1197" />
            </Array>
          </mxGeometry>
        </mxCell>
        <mxCell id="uKUIGhbXq-7t1j8THEdL-95" value="9: 1 * [i=1..source]&lt;br&gt;&lt;div&gt;sourceValues[i] = generateNumber&lt;/div&gt;" style="edgeLabel;html=1;align=center;verticalAlign=middle;resizable=0;points=[];" vertex="1" connectable="0" parent="uKUIGhbXq-7t1j8THEdL-94">
          <mxGeometry x="-0.0214" relative="1" as="geometry">
            <mxPoint x="-50" y="46" as="offset" />
          </mxGeometry>
        </mxCell>
        <mxCell id="uKUIGhbXq-7t1j8THEdL-73" value="dice: Dice" style="html=1;whiteSpace=wrap;" vertex="1" parent="1">
          <mxGeometry x="1670" y="1160.08" width="110" height="50" as="geometry" />
        </mxCell>
        <mxCell id="uKUIGhbXq-7t1j8THEdL-74" value="&lt;div&gt;&amp;lt;&amp;lt;create&amp;gt;&amp;gt;&lt;/div&gt;&lt;div&gt;1: TerritoryConfrontPhase(attacker: Territory, defender: Territory)&lt;br&gt;&lt;/div&gt;" style="html=1;verticalAlign=bottom;endArrow=block;curved=0;rounded=0;" edge="1" parent="1">
          <mxGeometry x="0.3321" width="80" relative="1" as="geometry">
            <mxPoint x="1330" y="710" as="sourcePoint" />
            <mxPoint x="1330" y="800.08" as="targetPoint" />
            <mxPoint as="offset" />
          </mxGeometry>
        </mxCell>
        <mxCell id="uKUIGhbXq-7t1j8THEdL-82" style="edgeStyle=orthogonalEdgeStyle;rounded=0;orthogonalLoop=1;jettySize=auto;html=1;entryX=1;entryY=0;entryDx=0;entryDy=0;exitX=0.75;exitY=0;exitDx=0;exitDy=0;" edge="1" parent="1" source="uKUIGhbXq-7t1j8THEdL-70" target="uKUIGhbXq-7t1j8THEdL-70">
          <mxGeometry relative="1" as="geometry">
            <Array as="points">
              <mxPoint x="1410" y="1010" />
              <mxPoint x="1410" y="970" />
              <mxPoint x="1460" y="970" />
            </Array>
          </mxGeometry>
        </mxCell>
        <mxCell id="uKUIGhbXq-7t1j8THEdL-83" value="2: calculateMaxArmyNumber()" style="text;html=1;align=center;verticalAlign=middle;resizable=0;points=[];autosize=1;strokeColor=none;fillColor=none;" vertex="1" parent="1">
          <mxGeometry x="1390" y="938" width="190" height="30" as="geometry" />
        </mxCell>
        <mxCell id="uKUIGhbXq-7t1j8THEdL-85" value="7: &amp;lt;&amp;lt;create&amp;gt;&amp;gt;DiceConfront(Dice)" style="html=1;verticalAlign=bottom;endArrow=block;curved=0;rounded=0;" edge="1" parent="1">
          <mxGeometry y="10" width="80" relative="1" as="geometry">
            <mxPoint x="1530" y="1020" as="sourcePoint" />
            <mxPoint x="1610" y="1020" as="targetPoint" />
            <mxPoint as="offset" />
          </mxGeometry>
        </mxCell>
        <mxCell id="uKUIGhbXq-7t1j8THEdL-87" value="8: rollDice(source: int, target: int)" style="html=1;verticalAlign=bottom;endArrow=block;curved=0;rounded=0;" edge="1" parent="1">
          <mxGeometry x="0.2" width="80" relative="1" as="geometry">
            <mxPoint x="1470" y="1184.65" as="sourcePoint" />
            <mxPoint x="1570" y="1184.65" as="targetPoint" />
            <mxPoint as="offset" />
          </mxGeometry>
        </mxCell>
        <mxCell id="uKUIGhbXq-7t1j8THEdL-96" style="edgeStyle=orthogonalEdgeStyle;rounded=0;orthogonalLoop=1;jettySize=auto;html=1;exitX=1;exitY=0.25;exitDx=0;exitDy=0;entryX=1;entryY=0.75;entryDx=0;entryDy=0;" edge="1" parent="1" source="uKUIGhbXq-7t1j8THEdL-73" target="uKUIGhbXq-7t1j8THEdL-73">
          <mxGeometry relative="1" as="geometry">
            <Array as="points">
              <mxPoint x="1830" y="1173" />
              <mxPoint x="1830" y="1198" />
            </Array>
          </mxGeometry>
        </mxCell>
        <mxCell id="uKUIGhbXq-7t1j8THEdL-97" value="10: 1 * [i=1..target]&lt;br&gt;&lt;div&gt;targetValues[i] = generateNumber&lt;/div&gt;" style="edgeLabel;html=1;align=center;verticalAlign=middle;resizable=0;points=[];" vertex="1" connectable="0" parent="1">
          <mxGeometry x="1859.9985714285715" y="1229.9971378535695" as="geometry" />
        </mxCell>
        <mxCell id="uKUIGhbXq-7t1j8THEdL-98" value="&amp;nbsp;12: getSourceValues():List&amp;lt;Integer&amp;gt;" style="html=1;verticalAlign=bottom;endArrow=block;curved=0;rounded=0;" edge="1" parent="1">
          <mxGeometry x="0.2" width="80" relative="1" as="geometry">
            <mxPoint x="1840" y="1080" as="sourcePoint" />
            <mxPoint x="1840" y="1130" as="targetPoint" />
            <mxPoint as="offset" />
          </mxGeometry>
        </mxCell>
        <mxCell id="uKUIGhbXq-7t1j8THEdL-99" value="13: getTargetValues():List&amp;lt;Integer&amp;gt;" style="html=1;verticalAlign=bottom;endArrow=block;curved=0;rounded=0;" edge="1" parent="1">
          <mxGeometry x="0.2" width="80" relative="1" as="geometry">
            <mxPoint x="2020" y="1080" as="sourcePoint" />
            <mxPoint x="2020" y="1130" as="targetPoint" />
            <mxPoint as="offset" />
          </mxGeometry>
        </mxCell>
        <mxCell id="uKUIGhbXq-7t1j8THEdL-100" value="16: setArmy(army: int)" style="html=1;verticalAlign=bottom;endArrow=none;curved=0;rounded=0;startArrow=block;startFill=1;endFill=0;" edge="1" parent="1">
          <mxGeometry width="80" relative="1" as="geometry">
            <mxPoint x="1110" y="840" as="sourcePoint" />
            <mxPoint x="1190" y="840" as="targetPoint" />
          </mxGeometry>
        </mxCell>
        <mxCell id="uKUIGhbXq-7t1j8THEdL-101" value="25: setArmy(army: int)" style="html=1;verticalAlign=bottom;endArrow=none;curved=0;rounded=0;startArrow=block;startFill=1;endFill=0;" edge="1" parent="1">
          <mxGeometry width="80" relative="1" as="geometry">
            <mxPoint x="1110" y="1239" as="sourcePoint" />
            <mxPoint x="1190" y="1239" as="targetPoint" />
          </mxGeometry>
        </mxCell>
        <mxCell id="uKUIGhbXq-7t1j8THEdL-103" style="edgeStyle=orthogonalEdgeStyle;rounded=0;orthogonalLoop=1;jettySize=auto;html=1;exitX=0.75;exitY=0;exitDx=0;exitDy=0;entryX=0.25;entryY=0;entryDx=0;entryDy=0;" edge="1" parent="1" source="uKUIGhbXq-7t1j8THEdL-66" target="uKUIGhbXq-7t1j8THEdL-66">
          <mxGeometry relative="1" as="geometry">
            <Array as="points">
              <mxPoint x="724" y="1060" />
              <mxPoint x="670" y="1060" />
            </Array>
          </mxGeometry>
        </mxCell>
        <mxCell id="uKUIGhbXq-7t1j8THEdL-104" value="26: notifyObservers(observer: RegionObserver)" style="edgeLabel;html=1;align=center;verticalAlign=middle;resizable=0;points=[];" vertex="1" connectable="0" parent="uKUIGhbXq-7t1j8THEdL-103">
          <mxGeometry x="0.0988" y="-1" relative="1" as="geometry">
            <mxPoint x="19" y="-9" as="offset" />
          </mxGeometry>
        </mxCell>
        <mxCell id="uKUIGhbXq-7t1j8THEdL-105" value="27: update(subject: RegionSubject)" style="html=1;verticalAlign=bottom;endArrow=block;curved=0;rounded=0;" edge="1" parent="1">
          <mxGeometry width="80" relative="1" as="geometry">
            <mxPoint x="770" y="1090" as="sourcePoint" />
            <mxPoint x="850" y="1090" as="targetPoint" />
          </mxGeometry>
        </mxCell>
        <mxCell id="uKUIGhbXq-7t1j8THEdL-107" value="30: update(subject: RegionSubject)" style="html=1;verticalAlign=bottom;endArrow=block;curved=0;rounded=0;" edge="1" parent="1">
          <mxGeometry x="-0.1429" width="80" relative="1" as="geometry">
            <mxPoint x="520" y="1130" as="sourcePoint" />
            <mxPoint x="520" y="1070" as="targetPoint" />
            <mxPoint as="offset" />
          </mxGeometry>
        </mxCell>
        <mxCell id="uKUIGhbXq-7t1j8THEdL-108" style="edgeStyle=orthogonalEdgeStyle;rounded=0;orthogonalLoop=1;jettySize=auto;html=1;exitX=0.75;exitY=1;exitDx=0;exitDy=0;entryX=0.25;entryY=1;entryDx=0;entryDy=0;" edge="1" parent="1" source="uKUIGhbXq-7t1j8THEdL-63" target="uKUIGhbXq-7t1j8THEdL-63">
          <mxGeometry relative="1" as="geometry">
            <mxPoint x="724.5" y="1040" as="sourcePoint" />
            <mxPoint x="669.5" y="1040" as="targetPoint" />
            <Array as="points">
              <mxPoint x="724" y="1000" />
              <mxPoint x="670" y="1000" />
            </Array>
          </mxGeometry>
        </mxCell>
        <mxCell id="uKUIGhbXq-7t1j8THEdL-109" value="17: notifyObservers(observer: RegionObserver)" style="edgeLabel;html=1;align=center;verticalAlign=middle;resizable=0;points=[];" vertex="1" connectable="0" parent="uKUIGhbXq-7t1j8THEdL-108">
          <mxGeometry x="0.0988" y="-1" relative="1" as="geometry">
            <mxPoint x="19" y="11" as="offset" />
          </mxGeometry>
        </mxCell>
        <mxCell id="uKUIGhbXq-7t1j8THEdL-110" value="21: update(subject: RegionSubject)" style="html=1;verticalAlign=bottom;endArrow=block;curved=0;rounded=0;" edge="1" parent="1">
          <mxGeometry x="0.4737" width="80" relative="1" as="geometry">
            <mxPoint x="520" y="930" as="sourcePoint" />
            <mxPoint x="520" y="1000" as="targetPoint" />
            <mxPoint as="offset" />
          </mxGeometry>
        </mxCell>
        <mxCell id="uKUIGhbXq-7t1j8THEdL-111" value="18: update(subject: RegionSubject)" style="html=1;verticalAlign=bottom;endArrow=block;curved=0;rounded=0;" edge="1" parent="1">
          <mxGeometry width="80" relative="1" as="geometry">
            <mxPoint x="770" y="980" as="sourcePoint" />
            <mxPoint x="850" y="980" as="targetPoint" />
          </mxGeometry>
        </mxCell>
        <mxCell id="uKUIGhbXq-7t1j8THEdL-112" value="3: getArmy():int" style="html=1;verticalAlign=bottom;endArrow=none;curved=0;rounded=0;startArrow=block;startFill=1;endFill=0;" edge="1" parent="1">
          <mxGeometry width="80" relative="1" as="geometry">
            <mxPoint x="1110" y="880" as="sourcePoint" />
            <mxPoint x="1190" y="880" as="targetPoint" />
          </mxGeometry>
        </mxCell>
        <mxCell id="uKUIGhbXq-7t1j8THEdL-113" value="4: getArmy():int" style="html=1;verticalAlign=bottom;endArrow=none;curved=0;rounded=0;startArrow=block;startFill=1;endFill=0;" edge="1" parent="1">
          <mxGeometry width="80" relative="1" as="geometry">
            <mxPoint x="1110" y="1184.45" as="sourcePoint" />
            <mxPoint x="1190" y="1184.45" as="targetPoint" />
          </mxGeometry>
        </mxCell>
        <mxCell id="uKUIGhbXq-7t1j8THEdL-116" style="edgeStyle=orthogonalEdgeStyle;rounded=0;orthogonalLoop=1;jettySize=auto;html=1;exitX=0;exitY=0.75;exitDx=0;exitDy=0;entryX=0;entryY=0.25;entryDx=0;entryDy=0;" edge="1" parent="1" source="uKUIGhbXq-7t1j8THEdL-68" target="uKUIGhbXq-7t1j8THEdL-68">
          <mxGeometry relative="1" as="geometry">
            <Array as="points">
              <mxPoint x="420" y="1047" />
              <mxPoint x="420" y="1023" />
            </Array>
          </mxGeometry>
        </mxCell>
        <mxCell id="uKUIGhbXq-7t1j8THEdL-120" value="24: notifyObservers(observer: RegionObserver)" style="edgeLabel;html=1;align=center;verticalAlign=middle;resizable=0;points=[];" vertex="1" connectable="0" parent="uKUIGhbXq-7t1j8THEdL-116">
          <mxGeometry x="-0.0206" y="1" relative="1" as="geometry">
            <mxPoint x="-119" y="-16" as="offset" />
          </mxGeometry>
        </mxCell>
        <mxCell id="uKUIGhbXq-7t1j8THEdL-121" value="23: getArmy():int" style="html=1;verticalAlign=bottom;endArrow=none;curved=0;rounded=0;startArrow=block;startFill=1;endFill=0;" edge="1" parent="1">
          <mxGeometry x="0.1111" width="80" relative="1" as="geometry">
            <mxPoint x="620" y="1170" as="sourcePoint" />
            <mxPoint x="530" y="1170" as="targetPoint" />
            <mxPoint as="offset" />
          </mxGeometry>
        </mxCell>
        <mxCell id="uKUIGhbXq-7t1j8THEdL-122" value="22: getArmy():int" style="html=1;verticalAlign=bottom;endArrow=none;curved=0;rounded=0;startArrow=block;startFill=1;endFill=0;" edge="1" parent="1">
          <mxGeometry x="0.1111" width="80" relative="1" as="geometry">
            <mxPoint x="620" y="909.13" as="sourcePoint" />
            <mxPoint x="530" y="909.13" as="targetPoint" />
            <mxPoint as="offset" />
          </mxGeometry>
        </mxCell>
        <mxCell id="uKUIGhbXq-7t1j8THEdL-123" style="edgeStyle=orthogonalEdgeStyle;rounded=0;orthogonalLoop=1;jettySize=auto;html=1;exitX=0.75;exitY=0;exitDx=0;exitDy=0;entryX=0.25;entryY=0;entryDx=0;entryDy=0;" edge="1" parent="1">
          <mxGeometry relative="1" as="geometry">
            <mxPoint x="952" y="1100" as="sourcePoint" />
            <mxPoint x="897" y="1100" as="targetPoint" />
            <Array as="points">
              <mxPoint x="951" y="1070" />
              <mxPoint x="897" y="1070" />
            </Array>
          </mxGeometry>
        </mxCell>
        <mxCell id="uKUIGhbXq-7t1j8THEdL-124" value="29: notifyObservers(observer: RegionObserver)" style="edgeLabel;html=1;align=center;verticalAlign=middle;resizable=0;points=[];" vertex="1" connectable="0" parent="uKUIGhbXq-7t1j8THEdL-123">
          <mxGeometry x="0.0988" y="-1" relative="1" as="geometry">
            <mxPoint x="19" y="-9" as="offset" />
          </mxGeometry>
        </mxCell>
        <mxCell id="uKUIGhbXq-7t1j8THEdL-125" style="edgeStyle=orthogonalEdgeStyle;rounded=0;orthogonalLoop=1;jettySize=auto;html=1;exitX=0.75;exitY=0;exitDx=0;exitDy=0;entryX=0.25;entryY=0;entryDx=0;entryDy=0;" edge="1" parent="1">
          <mxGeometry relative="1" as="geometry">
            <mxPoint x="942" y="910" as="sourcePoint" />
            <mxPoint x="887" y="910" as="targetPoint" />
            <Array as="points">
              <mxPoint x="941" y="880" />
              <mxPoint x="887" y="880" />
            </Array>
          </mxGeometry>
        </mxCell>
        <mxCell id="uKUIGhbXq-7t1j8THEdL-126" value="20: notifyObservers(observer: RegionObserver)" style="edgeLabel;html=1;align=center;verticalAlign=middle;resizable=0;points=[];" vertex="1" connectable="0" parent="uKUIGhbXq-7t1j8THEdL-125">
          <mxGeometry x="0.0988" y="-1" relative="1" as="geometry">
            <mxPoint x="19" y="-9" as="offset" />
          </mxGeometry>
        </mxCell>
        <mxCell id="uKUIGhbXq-7t1j8THEdL-127" value="28: getArmy():int" style="html=1;verticalAlign=bottom;endArrow=block;curved=0;rounded=0;startArrow=none;startFill=0;endFill=1;" edge="1" parent="1">
          <mxGeometry x="0.1111" width="80" relative="1" as="geometry">
            <mxPoint x="850" y="1148.95" as="sourcePoint" />
            <mxPoint x="760" y="1148.95" as="targetPoint" />
            <mxPoint as="offset" />
          </mxGeometry>
        </mxCell>
        <mxCell id="uKUIGhbXq-7t1j8THEdL-128" value="19: getArmy():int" style="html=1;verticalAlign=bottom;endArrow=block;curved=0;rounded=0;startArrow=none;startFill=0;endFill=1;" edge="1" parent="1">
          <mxGeometry x="0.1111" width="80" relative="1" as="geometry">
            <mxPoint x="850" y="920" as="sourcePoint" />
            <mxPoint x="760" y="920" as="targetPoint" />
            <mxPoint as="offset" />
          </mxGeometry>
        </mxCell>
        <mxCell id="uKUIGhbXq-7t1j8THEdL-129" value="33: notifyObservers(observer: RegionObserver)" style="edgeLabel;html=1;align=center;verticalAlign=middle;resizable=0;points=[];" vertex="1" connectable="0" parent="1">
          <mxGeometry x="300.0026315789473" y="1049.9984260029305" as="geometry" />
        </mxCell>
        <mxCell id="uKUIGhbXq-7t1j8THEdL-130" value="32: getArmy():int" style="html=1;verticalAlign=bottom;endArrow=none;curved=0;rounded=0;startArrow=block;startFill=1;endFill=0;" edge="1" parent="1">
          <mxGeometry x="0.1111" width="80" relative="1" as="geometry">
            <mxPoint x="620" y="1200" as="sourcePoint" />
            <mxPoint x="530" y="1200" as="targetPoint" />
            <mxPoint as="offset" />
          </mxGeometry>
        </mxCell>
        <mxCell id="uKUIGhbXq-7t1j8THEdL-131" value="31: getArmy():int" style="html=1;verticalAlign=bottom;endArrow=none;curved=0;rounded=0;startArrow=block;startFill=1;endFill=0;" edge="1" parent="1">
          <mxGeometry x="0.1111" width="80" relative="1" as="geometry">
            <mxPoint x="620" y="880" as="sourcePoint" />
            <mxPoint x="530" y="880" as="targetPoint" />
            <mxPoint as="offset" />
          </mxGeometry>
        </mxCell>
        <mxCell id="uKUIGhbXq-7t1j8THEdL-134" value="14: getWins():int" style="html=1;verticalAlign=bottom;endArrow=block;curved=0;rounded=0;" edge="1" parent="1">
          <mxGeometry y="10" width="80" relative="1" as="geometry">
            <mxPoint x="1510" y="1070" as="sourcePoint" />
            <mxPoint x="1590" y="1070" as="targetPoint" />
            <mxPoint as="offset" />
          </mxGeometry>
        </mxCell>
        <mxCell id="uKUIGhbXq-7t1j8THEdL-135" value="15: getLosses(): int" style="html=1;verticalAlign=bottom;endArrow=block;curved=0;rounded=0;" edge="1" parent="1">
          <mxGeometry y="10" width="80" relative="1" as="geometry">
            <mxPoint x="1510" y="1100" as="sourcePoint" />
            <mxPoint x="1590" y="1100" as="targetPoint" />
            <mxPoint as="offset" />
          </mxGeometry>
        </mxCell>
        <mxCell id="uKUIGhbXq-7t1j8THEdL-140" value="compareValues()" style="html=1;verticalAlign=bottom;endArrow=block;curved=0;rounded=0;" edge="1" parent="1">
          <mxGeometry y="10" width="80" relative="1" as="geometry">
            <mxPoint x="1510" y="934.57" as="sourcePoint" />
            <mxPoint x="1590" y="934.57" as="targetPoint" />
            <mxPoint as="offset" />
          </mxGeometry>
        </mxCell>
        <mxCell id="uKUIGhbXq-7t1j8THEdL-142" value="6: &amp;lt;&amp;lt;create&amp;gt;&amp;gt; Dice()" style="html=1;verticalAlign=bottom;endArrow=block;curved=0;rounded=0;" edge="1" parent="1">
          <mxGeometry x="0.2" width="80" relative="1" as="geometry">
            <mxPoint x="1470" y="1160" as="sourcePoint" />
            <mxPoint x="1570" y="1160" as="targetPoint" />
            <mxPoint as="offset" />
          </mxGeometry>
        </mxCell>
        <mxCell id="uKUIGhbXq-7t1j8THEdL-144" style="edgeStyle=orthogonalEdgeStyle;rounded=0;orthogonalLoop=1;jettySize=auto;html=1;entryX=0.75;entryY=0;entryDx=0;entryDy=0;endArrow=none;endFill=0;" edge="1" parent="1" source="uKUIGhbXq-7t1j8THEdL-143" target="uKUIGhbXq-7t1j8THEdL-70">
          <mxGeometry relative="1" as="geometry" />
        </mxCell>
        <mxCell id="uKUIGhbXq-7t1j8THEdL-143" value="Client" style="html=1;whiteSpace=wrap;" vertex="1" parent="1">
          <mxGeometry x="1370" y="630" width="110" height="50" as="geometry" />
        </mxCell>
        <mxCell id="uKUIGhbXq-7t1j8THEdL-145" value="&amp;nbsp;5: attackTerritory(sourceArmy: int, targetArmy: int)" style="html=1;verticalAlign=bottom;endArrow=block;curved=0;rounded=0;" edge="1" parent="1">
          <mxGeometry x="0.3321" width="80" relative="1" as="geometry">
            <mxPoint x="1610" y="710" as="sourcePoint" />
            <mxPoint x="1610" y="800.08" as="targetPoint" />
            <mxPoint as="offset" />
          </mxGeometry>
        </mxCell>
        <mxCell id="uKUIGhbXq-7t1j8THEdL-146" value="11: compareValues()" style="html=1;verticalAlign=bottom;endArrow=block;curved=0;rounded=0;" edge="1" parent="1">
          <mxGeometry y="10" width="80" relative="1" as="geometry">
            <mxPoint x="1520" y="990" as="sourcePoint" />
            <mxPoint x="1600" y="990" as="targetPoint" />
            <mxPoint as="offset" />
          </mxGeometry>
        </mxCell>
      </root>
    </mxGraphModel>
  </diagram>
</mxfile>
